<svg version="1.1" id="Layer_1" xmlns="http://www.w3.org/2000/svg" x="0" y="0" viewBox="0 0 37 36" style="enableBackground:new 0 0 115.2 36" xml:space="preserve">
    <style>
        .st0{fill:#fff}.st1{fill:#001e61}
    </style>
    <path class="st1" d="M18.2 36c-9.9 0-18-8.1-18-18s8.1-18 18-18 18 8.1 18 18-8 18-18 18z"/>
    <path style="fill:#e43d30" d="M3.3 3.1h29.8v29.8H3.3z"/>
    <path class="st1" d="M5.5 5.3h25.4v25.4H5.5z"/>
    <path class="st0" d="M23.4 28.8v-9.9l-5.3 9.8-5.1-9.8v9.9H7.5V7.2H13l5.2 9.7 5.2-9.7h5.5v21.5h-5.5zM115 13.1c0 1.2-.9 2.1-2.2 2.1-1.3 0-2.2-.9-2.2-2.1s1-2.1 2.2-2.1c1.2 0 2.2.9 2.2 2.1zm-3.9 0c0 .9.7 1.7 1.7 1.7.9 0 1.6-.8 1.6-1.7s-.7-1.8-1.7-1.8c-.9.1-1.6.8-1.6 1.8zm1.4 1.1h-.5v-2.1c.2 0 .5-.1.8-.1.4 0 .6.1.8.2.1.1.3.3.3.4 0 .3-.2.4-.4.5.2.1.3.3.4.5.1.3.1.4.2.5h-.5c-.1-.1-.1-.3-.2-.5-.1-.3-.2-.3-.4-.3h-.3l-.2.9zm0-1.2h.3c.3 0 .5-.1.5-.3 0-.2-.1-.3-.4-.3h-.3l-.1.6z"/>
</svg>
